<?xml version="1.0" encoding="UTF-8" standalone="no"?><!DOCTYPE svg PUBLIC "-//W3C//DTD SVG 1.1//EN" "http://www.w3.org/Graphics/SVG/1.1/DTD/svg11.dtd"><svg width="100%" height="100%" viewBox="0 0 256 256" version="1.1" xmlns="http://www.w3.org/2000/svg" xmlns:xlink="http://www.w3.org/1999/xlink" xml:space="preserve" xmlns:serif="http://www.serif.com/" style="fill-rule:evenodd;clip-rule:evenodd;"><circle cx="128" cy="128" r="100" style="fill:url(#_Linear1);stroke:#ffe89b;stroke-opacity:0.56;stroke-width:2px;"/><circle cx="128" cy="128" r="84" style="fill:url(#_Linear2);stroke:#fff;stroke-opacity:0.16;stroke-width:2px;"/><circle cx="128" cy="128" r="62" style="fill:url(#_Linear3);"/><path d="M128,64c35.323,0 64,28.677 64,64c0,35.323 -28.677,64 -64,64c-35.323,0 -64,-28.677 -64,-64c0,-35.323 28.677,-64 64,-64Zm0,2c-34.219,0 -62,27.781 -62,62c0,34.219 27.781,62 62,62c34.219,0 62,-27.781 62,-62c0,-34.219 -27.781,-62 -62,-62Z" style="fill-opacity:0.07;"/><g><clipPath id="_clip4"><circle cx="128" cy="128" r="100"/></clipPath><g clip-path="url(#_clip4)"><path d="M222.496,2.858l-152,263.272c-5.519,9.559 -17.761,12.84 -27.321,7.321l-5.175,-2.988c-9.559,-5.519 -12.84,-17.761 -7.321,-27.321l152,-263.272c5.519,-9.559 17.761,-12.84 27.321,-7.321l5.175,2.988c9.559,5.519 12.84,17.761 7.321,27.321Z" style="fill:url(#_Linear5);"/></g></g><g><path d="M73.588,155.006l32.933,-32.933l27.206,27.206l48.684,-48.684" style="fill:none;fill-rule:nonzero;stroke:#000;stroke-opacity:0.24;stroke-width:20.05px;stroke-linecap:round;stroke-linejoin:round;"/><path d="M152.342,100.594l30.07,0l0,30.07" style="fill:none;fill-rule:nonzero;stroke:#000;stroke-opacity:0.24;stroke-width:20.05px;stroke-linecap:round;stroke-linejoin:round;"/><path d="M73.588,150.206l32.933,-32.933l27.206,27.206l48.684,-48.684" style="fill:none;fill-rule:nonzero;stroke:#fff7da;stroke-width:20.05px;stroke-linecap:round;stroke-linejoin:round;"/><path d="M152.342,95.794l30.07,0l0,30.07" style="fill:none;fill-rule:nonzero;stroke:#fff7da;stroke-width:20.05px;stroke-linecap:round;stroke-linejoin:round;"/></g><defs><linearGradient id="_Linear1" x1="0" y1="0" x2="1" y2="0" gradientUnits="userSpaceOnUse" gradientTransform="matrix(0,200,-200,0,128,28)"><stop offset="0" style="stop-color:#fff2b8;stop-opacity:1"/><stop offset="0.42" style="stop-color:#e1b448;stop-opacity:1"/><stop offset="1" style="stop-color:#9f6e16;stop-opacity:1"/></linearGradient><linearGradient id="_Linear2" x1="0" y1="0" x2="1" y2="0" gradientUnits="userSpaceOnUse" gradientTransform="matrix(0,168,-168,0,128,44)"><stop offset="0" style="stop-color:#fff;stop-opacity:0.12"/><stop offset="1" style="stop-color:#000;stop-opacity:0.08"/></linearGradient><linearGradient id="_Linear3" x1="0" y1="0" x2="1" y2="0" gradientUnits="userSpaceOnUse" gradientTransform="matrix(-0,124,-124,-0,128,66)"><stop offset="0" style="stop-color:#c6b276;stop-opacity:1"/><stop offset="1" style="stop-color:#8d6820;stop-opacity:1"/></linearGradient><linearGradient id="_Linear5" x1="0" y1="0" x2="1" y2="0" gradientUnits="userSpaceOnUse" gradientTransform="matrix(-128,221.702503,-254.825326,-147.12347,186.606374,9.849944)"><stop offset="0" style="stop-color:#fff;stop-opacity:0"/><stop offset="0.26" style="stop-color:#fff;stop-opacity:0.05"/><stop offset="0.5" style="stop-color:#fff;stop-opacity:0.46"/><stop offset="0.7" style="stop-color:#fff;stop-opacity:0.08"/><stop offset="1" style="stop-color:#fff;stop-opacity:0"/></linearGradient></defs></svg>